<?xml version="1.0"?>
<svg xmlns="http://www.w3.org/2000/svg" xmlns:xlink="http://www.w3.org/1999/xlink" xmlns:svgjs="http://svgjs.com/svgjs" version="1.1" width="512" height="512" x="0" y="0" viewBox="0 0 512 512" style="enable-background:new 0 0 512 512" xml:space="preserve" class=""><g><g xmlns="http://www.w3.org/2000/svg"><g><path d="m108.208 54.104v73.221h-108.208v261.467c0 38.104 31 69.104 69.104 69.104h373.792c38.104 0 69.104-31 69.104-69.104v-334.688zm-78.208 334.688v-231.467h78.208v231.467c0 21.562-17.542 39.104-39.104 39.104s-39.104-17.542-39.104-39.104zm452 0c0 21.562-17.542 39.104-39.104 39.104h-316.858c7.667-11.128 12.17-24.598 12.17-39.104v-261.467-43.221h343.792z" fill="#1c87df" data-original="#000000" style="" class=""/></g><g><path d="m325.104 241h-156.896v156.896h156.896zm-30 126.896h-96.896v-96.896h96.896z" fill="#1c87df" data-original="#000000" style="" class=""/></g><g><path d="m168.208 114.104h283.792v30h-283.792z" fill="#1c87df" data-original="#000000" style="" class=""/></g><g><path d="m359.708 367.896h92.292v30h-92.292z" fill="#1c87df" data-original="#000000" style="" class=""/></g><g><path d="m359.708 304.448h92.292v30h-92.292z" fill="#1c87df" data-original="#000000" style="" class=""/></g><g><path d="m359.708 241h92.292v30h-92.292z" fill="#1c87df" data-original="#000000" style="" class=""/></g><g><path d="m168.208 177.552h283.792v30h-283.792z" fill="#1c87df" data-original="#000000" style="" class=""/></g></g></g></svg>
